<?xml version="1.0" encoding="UTF-8"?>
<svg xmlns="http://www.w3.org/2000/svg" xmlns:xlink="http://www.w3.org/1999/xlink" width="60px" height="60px" viewBox="0 0 60 60" version="1.1">
<g id="surface1">
<path style=" stroke:none;fill-rule:nonzero;fill:rgb(43.529412%,39.607843%,44.313725%);fill-opacity:1;" d="M 35.828125 17.636719 C 35.097656 16.738281 34.578125 15.679688 34.308594 14.550781 L 32.933594 8.785156 C 32.917969 8.710938 32.910156 8.640625 32.910156 8.566406 L 32.910156 4.210938 L 27.089844 4.210938 L 27.089844 8.566406 C 27.089844 8.640625 27.078125 8.710938 27.0625 8.785156 L 25.6875 14.550781 C 25.417969 15.679688 24.902344 16.738281 24.167969 17.636719 C 22.992188 19.085938 21.269531 21.640625 21.269531 24.199219 L 30 25.25 L 38.730469 24.199219 C 38.730469 21.640625 37.003906 19.085938 35.828125 17.636719 Z M 35.828125 17.636719 "/>
<path style=" stroke:none;fill-rule:nonzero;fill:rgb(43.529412%,39.607843%,44.313725%);fill-opacity:1;" d="M 37.871094 46.441406 C 37.796875 45.84375 37.785156 45.234375 37.835938 44.632812 L 38.703125 36.160156 C 38.710938 36.054688 38.71875 35.945312 38.722656 35.839844 L 30 34.902344 L 21.273438 35.839844 C 21.277344 35.945312 21.285156 36.054688 21.292969 36.160156 L 22.164062 44.632812 C 22.210938 45.234375 22.199219 45.84375 22.125 46.441406 L 21.34375 52.699219 C 21.292969 53.101562 21.269531 53.5 21.269531 53.902344 L 21.269531 55.242188 C 21.269531 57.382812 23.003906 59.121094 25.148438 59.121094 L 34.847656 59.121094 C 36.992188 59.121094 38.730469 57.382812 38.730469 55.242188 L 38.730469 53.902344 C 38.730469 53.5 38.703125 53.101562 38.652344 52.699219 Z M 37.871094 46.441406 "/>
<path style=" stroke:none;fill-rule:nonzero;fill:rgb(36.862745%,31.764706%,38.039216%);fill-opacity:1;" d="M 36.035156 24.199219 L 36.035156 24.738281 L 38.730469 24.484375 L 38.730469 24.199219 C 38.730469 21.640625 37.003906 19.085938 35.828125 17.636719 C 35.097656 16.738281 34.578125 15.679688 34.308594 14.550781 L 32.933594 8.785156 C 32.917969 8.710938 32.910156 8.640625 32.910156 8.566406 L 32.910156 4.210938 L 30.214844 4.210938 L 30.214844 8.566406 C 30.214844 8.640625 30.222656 8.710938 30.242188 8.785156 L 31.613281 14.550781 C 31.882812 15.679688 32.402344 16.738281 33.136719 17.636719 C 34.3125 19.085938 36.035156 21.640625 36.035156 24.199219 Z M 36.035156 24.199219 "/>
<path style=" stroke:none;fill-rule:nonzero;fill:rgb(36.862745%,31.764706%,38.039216%);fill-opacity:1;" d="M 37.871094 46.441406 C 37.796875 45.84375 37.785156 45.234375 37.835938 44.632812 L 38.703125 36.160156 C 38.71875 35.980469 38.726562 35.800781 38.726562 35.617188 L 36.035156 35.421875 L 36.035156 35.515625 C 36.035156 35.730469 36.027344 35.945312 36.007812 36.160156 L 35.140625 44.632812 C 35.089844 45.234375 35.101562 45.84375 35.179688 46.441406 L 35.960938 52.699219 C 36.011719 53.101562 36.035156 53.503906 36.035156 53.902344 L 36.035156 55.242188 C 36.035156 57.382812 34.296875 59.121094 32.15625 59.121094 L 34.847656 59.121094 C 36.992188 59.121094 38.730469 57.382812 38.730469 55.242188 L 38.730469 53.902344 C 38.730469 53.5 38.703125 53.101562 38.652344 52.699219 Z M 37.871094 46.441406 "/>
<path style=" stroke:none;fill-rule:nonzero;fill:rgb(89.803922%,34.901961%,39.215686%);fill-opacity:1;" d="M 21.269531 24.199219 L 38.730469 24.199219 L 38.730469 35.839844 L 21.269531 35.839844 Z M 21.269531 24.199219 "/>
<path style=" stroke:none;fill-rule:nonzero;fill:rgb(89.803922%,34.901961%,39.215686%);fill-opacity:1;" d="M 32.941406 4.796875 L 27.054688 4.796875 C 26.539062 4.796875 26.117188 4.378906 26.117188 3.859375 L 26.117188 2.789062 C 26.117188 1.753906 26.957031 0.917969 27.992188 0.917969 L 32.003906 0.917969 C 33.039062 0.917969 33.878906 1.753906 33.878906 2.789062 L 33.878906 3.859375 C 33.878906 4.378906 33.460938 4.796875 32.941406 4.796875 Z M 32.941406 4.796875 "/>
<path style=" stroke:none;fill-rule:nonzero;fill:rgb(85.882353%,25.098039%,30.980392%);fill-opacity:1;" d="M 32.003906 0.917969 L 29.3125 0.917969 C 30.347656 0.917969 31.183594 1.753906 31.183594 2.789062 L 31.183594 3.859375 C 31.183594 4.378906 30.765625 4.796875 30.25 4.796875 L 32.941406 4.796875 C 33.460938 4.796875 33.878906 4.378906 33.878906 3.859375 L 33.878906 2.789062 C 33.878906 1.753906 33.039062 0.917969 32.003906 0.917969 Z M 32.003906 0.917969 "/>
<path style=" stroke:none;fill-rule:nonzero;fill:rgb(85.882353%,25.098039%,30.980392%);fill-opacity:1;" d="M 36.035156 24.199219 L 36.035156 35.515625 C 36.035156 35.625 36.035156 35.730469 36.027344 35.839844 L 38.722656 35.839844 C 38.726562 35.730469 38.730469 35.625 38.730469 35.515625 L 38.730469 24.199219 Z M 36.035156 24.199219 "/>
<path style=" stroke:none;fill-rule:nonzero;fill:rgb(0%,0%,0%);fill-opacity:1;" d="M 38.730469 27.199219 C 40.070312 27.230469 39.492188 24.964844 39.609375 24.199219 C 39.609375 21.464844 37.921875 18.820312 36.511719 17.085938 C 34.996094 15.515625 34.394531 10.585938 33.785156 8.574219 C 33.789062 8.574219 33.789062 5.464844 33.789062 5.464844 C 34.789062 5.019531 34.8125 3.742188 34.757812 2.789062 C 34.652344 -0.828125 30.355469 0.15625 27.992188 0.0390625 C 26.472656 0.0390625 25.238281 1.273438 25.238281 2.789062 C 25.1875 3.742188 25.203125 5.023438 26.210938 5.464844 L 26.210938 8.574219 C 26.210938 8.574219 24.835938 14.347656 24.835938 14.347656 C 23.824219 17.792969 20.28125 20.015625 20.390625 24.199219 C 20.390625 24.199219 20.390625 35.515625 20.390625 35.515625 C 20.386719 35.761719 20.398438 36.007812 20.421875 36.25 C 20.546875 38.214844 21.65625 45.523438 21.125 47.371094 C 21.0625 47.851562 21.40625 48.292969 21.886719 48.351562 C 24.378906 48.714844 22.113281 38.148438 22.234375 36.71875 L 29.121094 36.71875 L 29.121094 39.71875 C 29.121094 40.203125 29.511719 40.597656 30 40.597656 C 30.484375 40.597656 30.875 40.203125 30.875 39.71875 L 30.875 36.71875 L 37.761719 36.71875 C 37.648438 38.273438 36.71875 45.132812 37 46.550781 C 37.074219 47.320312 37.902344 53.269531 37.851562 53.902344 C 38.09375 56.023438 37.285156 58.195312 34.847656 58.242188 L 30 58.242188 C 27.398438 58.058594 22.242188 59.328125 22.144531 55.242188 C 22.085938 53.992188 22.238281 52.339844 22.429688 51.101562 C 22.59375 49.972656 20.804688 49.753906 20.683594 50.882812 C 19.992188 54.820312 20 59.726562 25.148438 60 C 27.566406 59.992188 32.429688 60.003906 34.847656 60 C 41.914062 59.675781 39.109375 50.773438 38.742188 46.332031 C 38.464844 45.324219 39.519531 37.425781 39.574219 36.25 C 39.636719 35.9375 39.597656 30.378906 39.609375 29.902344 C 39.621094 28.773438 37.835938 28.753906 37.851562 29.902344 C 37.851562 29.902344 37.851562 34.960938 37.851562 34.960938 L 22.144531 34.960938 L 22.144531 25.074219 L 37.851562 25.074219 C 37.867188 25.785156 37.625 27.21875 38.730469 27.199219 Z M 26.996094 2.789062 C 26.996094 2.242188 27.441406 1.792969 27.992188 1.792969 L 32.003906 1.792969 C 33.128906 1.796875 33.027344 3.074219 33 3.859375 C 33.011719 4.03125 27.113281 3.859375 27.054688 3.917969 C 26.925781 3.984375 27.027344 2.816406 26.996094 2.789062 Z M 24.847656 18.191406 C 26.59375 16.347656 27.125 11.90625 27.78125 9.554688 C 28.558594 9.429688 30.90625 10.035156 30.875 8.675781 C 30.902344 7.355469 28.730469 7.90625 27.964844 7.796875 L 27.964844 5.675781 L 32.03125 5.675781 L 32.03125 8.675781 C 32.039062 9.058594 33.40625 14.425781 33.453125 14.753906 C 34.171875 18.085938 37.121094 19.546875 37.777344 23.320312 L 30.875 23.320312 L 30.875 20.316406 C 30.875 19.832031 30.484375 19.4375 30 19.4375 C 29.511719 19.4375 29.121094 19.832031 29.121094 20.316406 L 29.121094 23.320312 L 22.222656 23.320312 C 22.558594 21.273438 23.964844 19.277344 24.847656 18.191406 Z M 24.847656 18.191406 "/>
<path style=" stroke:none;fill-rule:nonzero;fill:rgb(0%,0%,0%);fill-opacity:1;" d="M 34.757812 28.078125 C 34.757812 27.59375 34.363281 27.199219 33.878906 27.199219 L 26.117188 27.199219 C 25.632812 27.199219 25.238281 27.59375 25.238281 28.078125 C 25.238281 28.5625 25.632812 28.957031 26.117188 28.957031 L 33.878906 28.957031 C 34.363281 28.957031 34.757812 28.5625 34.757812 28.078125 Z M 34.757812 28.078125 "/>
<path style=" stroke:none;fill-rule:nonzero;fill:rgb(0%,0%,0%);fill-opacity:1;" d="M 28.058594 31.082031 C 26.917969 31.0625 26.917969 32.855469 28.058594 32.835938 C 28.058594 32.835938 31.9375 32.835938 31.9375 32.835938 C 32.421875 32.835938 32.816406 32.445312 32.816406 31.957031 C 32.816406 31.472656 32.421875 31.082031 31.9375 31.082031 Z M 28.058594 31.082031 "/>
<path style=" stroke:none;fill-rule:nonzero;fill:rgb(0%,0%,0%);fill-opacity:1;" d="M 33.878906 56.117188 C 35.015625 56.136719 35.019531 54.34375 33.878906 54.363281 L 26.117188 54.363281 C 24.980469 54.34375 24.976562 56.136719 26.117188 56.117188 Z M 33.878906 56.117188 "/>
</g>
</svg>
