<?xml version="1.0" encoding="UTF-8"?>
<svg xmlns="http://www.w3.org/2000/svg" xmlns:xlink="http://www.w3.org/1999/xlink" width="60px" height="60px" viewBox="0 0 60 60" version="1.1">
<g id="surface1">
<path style=" stroke:none;fill-rule:nonzero;fill:rgb(97.647059%,81.960784%,12.156863%);fill-opacity:1;" d="M 53.804688 42.203125 L 49.261719 43.738281 L 4.1875 58.984375 C 2.222656 59.648438 0.351562 57.777344 1.015625 55.816406 L 1.136719 55.460938 L 16.265625 10.75 L 17.804688 6.210938 L 23.605469 5.382812 L 42.441406 17.585938 L 54.632812 36.402344 L 54.3125 38.644531 Z M 53.804688 42.203125 "/>
<path style=" stroke:none;fill-rule:nonzero;fill:rgb(100%,64.313725%,0.784314%);fill-opacity:1;" d="M 53.804688 42.203125 L 49.261719 43.738281 L 4.1875 58.984375 C 2.222656 59.648438 0.351562 57.777344 1.015625 55.816406 L 1.136719 55.460938 C 2.210938 55.925781 3.4375 55.988281 4.585938 55.597656 L 54.3125 38.644531 Z M 53.804688 42.203125 "/>
<path style=" stroke:none;fill-rule:nonzero;fill:rgb(99.215686%,92.941176%,64.705882%);fill-opacity:1;" d="M 53.804688 42.203125 L 49.261719 43.738281 C 49.035156 42.761719 48.75 41.734375 48.394531 40.660156 C 46.679688 35.464844 43.359375 29.253906 37.058594 22.953125 C 29.453125 15.351562 21.980469 12.089844 16.265625 10.75 L 17.804688 6.210938 L 23.605469 5.382812 L 42.441406 17.585938 L 54.632812 36.402344 L 54.3125 38.644531 Z M 53.804688 42.203125 "/>
<path style=" stroke:none;fill-rule:nonzero;fill:rgb(98.431373%,87.45098%,38.823529%);fill-opacity:1;" d="M 53.804688 42.203125 L 49.261719 43.738281 C 49.035156 42.761719 48.75 41.734375 48.394531 40.660156 L 54.3125 38.644531 Z M 53.804688 42.203125 "/>
<path style=" stroke:none;fill-rule:nonzero;fill:rgb(92.941176%,12.54902%,38.039216%);fill-opacity:1;" d="M 26.949219 23.28125 C 26.949219 20.710938 24.863281 18.625 22.289062 18.625 C 19.71875 18.625 17.632812 20.710938 17.632812 23.28125 C 17.632812 25.851562 19.71875 27.933594 22.289062 27.933594 C 24.863281 27.933594 26.949219 25.851562 26.949219 23.28125 Z M 26.949219 23.28125 "/>
<path style=" stroke:none;fill-rule:nonzero;fill:rgb(92.941176%,12.54902%,38.039216%);fill-opacity:1;" d="M 23.96875 40.679688 C 23.96875 38.109375 21.882812 36.023438 19.3125 36.023438 C 16.738281 36.023438 14.65625 38.109375 14.65625 40.679688 C 14.65625 43.25 16.738281 45.335938 19.3125 45.335938 C 21.882812 45.335938 23.96875 43.25 23.96875 40.679688 Z M 23.96875 40.679688 "/>
<path style=" stroke:none;fill-rule:nonzero;fill:rgb(92.941176%,12.54902%,38.039216%);fill-opacity:1;" d="M 41.421875 46.390625 L 33.515625 49.042969 C 32.71875 48.246094 32.269531 47.234375 32.171875 46.191406 C 32.046875 44.859375 32.496094 43.480469 33.515625 42.460938 C 35.335938 40.644531 38.285156 40.644531 40.101562 42.460938 C 40.351562 42.710938 40.566406 42.980469 40.746094 43.269531 C 41.34375 44.210938 41.570312 45.320312 41.421875 46.390625 Z M 41.421875 46.390625 "/>
<path style=" stroke:none;fill-rule:nonzero;fill:rgb(40.784314%,75.294118%,26.666667%);fill-opacity:1;" d="M 11.496094 51.148438 C 10.289062 52.359375 7.992188 52.023438 7.992188 52.023438 C 7.992188 52.023438 7.660156 49.730469 8.867188 48.519531 C 10.078125 47.3125 12.375 47.644531 12.375 47.644531 C 12.375 47.644531 12.707031 49.9375 11.496094 51.148438 Z M 11.496094 51.148438 "/>
<path style=" stroke:none;fill-rule:nonzero;fill:rgb(40.784314%,75.294118%,26.666667%);fill-opacity:1;" d="M 32.613281 34.0625 C 33.515625 35.515625 32.667969 37.675781 32.667969 37.675781 C 32.667969 37.675781 30.355469 37.476562 29.453125 36.023438 C 28.550781 34.570312 29.398438 32.410156 29.398438 32.410156 C 29.398438 32.410156 31.710938 32.609375 32.613281 34.0625 Z M 32.613281 34.0625 "/>
<path style=" stroke:none;fill-rule:nonzero;fill:rgb(96.862745%,61.960784%,37.647059%);fill-opacity:1;" d="M 57.136719 44.214844 C 57.101562 44.222656 57.066406 44.230469 57.03125 44.238281 C 56.128906 44.429688 55.238281 44.128906 54.632812 43.523438 C 54.28125 43.175781 54.027344 42.726562 53.921875 42.207031 C 52.785156 36.796875 49.542969 28.460938 40.539062 19.457031 C 31.535156 10.457031 23.195312 7.214844 17.78125 6.078125 C 16.363281 5.78125 15.453125 4.390625 15.75 2.96875 C 15.757812 2.933594 15.765625 2.898438 15.773438 2.867188 C 16.117188 1.507812 17.476562 0.644531 18.863281 0.9375 C 24.972656 2.21875 34.335938 5.828125 44.253906 15.742188 C 54.171875 25.660156 57.78125 35.019531 59.0625 41.128906 C 59.355469 42.511719 58.496094 43.871094 57.136719 44.214844 Z M 57.136719 44.214844 "/>
<path style=" stroke:none;fill-rule:nonzero;fill:rgb(84.313725%,49.019608%,25.490196%);fill-opacity:1;" d="M 57.136719 44.214844 C 57.230469 43.839844 57.242188 43.4375 57.15625 43.035156 C 55.875 36.925781 52.265625 27.5625 42.347656 17.644531 C 32.429688 7.734375 23.066406 4.125 16.957031 2.84375 C 16.550781 2.757812 16.148438 2.769531 15.773438 2.867188 C 16.117188 1.507812 17.476562 0.644531 18.863281 0.9375 C 24.972656 2.21875 34.335938 5.828125 44.253906 15.742188 C 54.171875 25.660156 57.78125 35.019531 59.0625 41.128906 C 59.355469 42.511719 58.496094 43.871094 57.136719 44.214844 Z M 57.136719 44.214844 "/>
<path style=" stroke:none;fill-rule:nonzero;fill:rgb(78.039216%,11.764706%,32.941176%);fill-opacity:1;" d="M 41.421875 46.390625 L 33.515625 49.042969 C 32.71875 48.246094 32.269531 47.234375 32.171875 46.191406 L 40.746094 43.269531 C 41.34375 44.210938 41.570312 45.320312 41.421875 46.390625 Z M 41.421875 46.390625 "/>
<path style=" stroke:none;fill-rule:nonzero;fill:rgb(0%,0%,0%);fill-opacity:1;" d="M 59.925781 40.949219 C 58.617188 34.722656 54.945312 25.1875 44.875 15.117188 C 34.804688 5.050781 25.269531 1.382812 19.042969 0.0742188 C 17.148438 -0.324219 15.285156 0.894531 14.890625 2.785156 C 14.695312 3.703125 14.875 4.640625 15.386719 5.425781 C 15.726562 5.945312 16.191406 6.359375 16.730469 6.632812 L 6.359375 37.273438 C 6.203125 37.734375 6.453125 38.234375 6.910156 38.390625 C 7.003906 38.421875 7.101562 38.433594 7.191406 38.433594 C 7.558594 38.433594 7.902344 38.203125 8.027344 37.839844 L 16.839844 11.796875 C 23.828125 13.601562 30.417969 17.558594 36.4375 23.570312 C 38.710938 25.847656 40.722656 28.246094 42.414062 30.707031 C 42.582031 30.953125 42.859375 31.085938 43.136719 31.085938 C 43.308594 31.085938 43.484375 31.035156 43.636719 30.929688 C 44.035156 30.65625 44.136719 30.109375 43.863281 29.710938 C 42.113281 27.167969 40.035156 24.6875 37.691406 22.339844 C 37.6875 22.339844 37.6875 22.335938 37.6875 22.335938 L 37.671875 22.320312 C 37.667969 22.316406 37.667969 22.316406 37.664062 22.3125 C 37.664062 22.3125 37.664062 22.3125 37.660156 22.3125 C 31.460938 16.117188 24.648438 12.023438 17.402344 10.128906 L 18.421875 7.125 C 19.753906 7.441406 21.109375 7.855469 22.464844 8.355469 C 22.917969 8.527344 23.425781 8.296875 23.59375 7.839844 C 23.761719 7.386719 23.53125 6.878906 23.078125 6.710938 C 21.363281 6.074219 19.644531 5.570312 17.960938 5.21875 C 17.503906 5.121094 17.113281 4.855469 16.855469 4.460938 C 16.601562 4.070312 16.515625 3.605469 16.609375 3.148438 C 16.808594 2.203125 17.738281 1.597656 18.679688 1.796875 C 24.671875 3.050781 33.867188 6.601562 43.632812 16.359375 C 53.398438 26.125 56.945312 35.316406 58.203125 41.308594 C 58.300781 41.765625 58.210938 42.234375 57.957031 42.625 C 57.699219 43.015625 57.308594 43.28125 56.851562 43.378906 C 56.269531 43.5 55.671875 43.324219 55.253906 42.902344 C 55.011719 42.664062 54.851562 42.359375 54.78125 42.027344 C 53.621094 36.5 50.316406 27.988281 41.160156 18.832031 C 36.683594 14.359375 31.929688 10.855469 27.035156 8.425781 C 26.597656 8.210938 26.070312 8.390625 25.855469 8.824219 C 25.640625 9.257812 25.816406 9.785156 26.253906 10 C 30.976562 12.347656 35.574219 15.738281 39.917969 20.078125 C 48.332031 28.492188 51.621094 36.289062 52.878906 41.585938 L 49.882812 42.601562 C 49.054688 39.441406 47.78125 36.316406 46.09375 33.296875 C 45.855469 32.871094 45.320312 32.71875 44.898438 32.957031 C 44.472656 33.195312 44.324219 33.730469 44.558594 34.152344 C 46.195312 37.082031 47.421875 40.109375 48.214844 43.164062 L 42.3125 45.160156 C 42.183594 43.917969 41.632812 42.75 40.722656 41.839844 C 38.5625 39.679688 35.050781 39.679688 32.894531 41.839844 C 31.847656 42.882812 31.273438 44.273438 31.273438 45.753906 C 31.273438 46.78125 31.554688 47.765625 32.074219 48.625 L 3.902344 58.152344 C 3.304688 58.355469 2.679688 58.210938 2.234375 57.765625 C 1.789062 57.316406 1.644531 56.695312 1.847656 56.097656 L 6.730469 41.667969 C 6.882812 41.210938 6.636719 40.710938 6.179688 40.554688 C 5.71875 40.398438 5.21875 40.644531 5.0625 41.105469 L 0.179688 55.535156 C -0.234375 56.761719 0.078125 58.089844 0.992188 59.007812 C 1.640625 59.65625 2.496094 60 3.375 60 C 3.738281 60 4.105469 59.941406 4.464844 59.820312 L 53.375 43.273438 C 53.539062 43.59375 53.753906 43.886719 54.011719 44.144531 C 54.675781 44.8125 55.566406 45.175781 56.488281 45.175781 C 56.726562 45.175781 56.972656 45.148438 57.210938 45.101562 C 58.128906 44.90625 58.914062 44.371094 59.429688 43.585938 C 59.941406 42.800781 60.117188 41.863281 59.925781 40.949219 Z M 33.804688 48.039062 C 33.300781 47.386719 33.03125 46.589844 33.03125 45.753906 C 33.03125 44.746094 33.425781 43.796875 34.136719 43.082031 C 35.609375 41.609375 38.007812 41.609375 39.480469 43.082031 C 40.199219 43.800781 40.585938 44.75 40.585938 45.746094 Z M 33.804688 48.039062 "/>
<path style=" stroke:none;fill-rule:nonzero;fill:rgb(0%,0%,0%);fill-opacity:1;" d="M 18.375 19.367188 C 17.332031 20.410156 16.753906 21.800781 16.753906 23.28125 C 16.753906 24.757812 17.332031 26.148438 18.375 27.191406 C 19.457031 28.273438 20.871094 28.8125 22.289062 28.8125 C 23.707031 28.8125 25.125 28.273438 26.203125 27.191406 C 27.25 26.148438 27.824219 24.757812 27.824219 23.28125 C 27.824219 21.800781 27.25 20.410156 26.203125 19.367188 C 24.046875 17.207031 20.535156 17.207031 18.375 19.367188 Z M 24.960938 25.949219 C 23.488281 27.421875 21.09375 27.421875 19.617188 25.949219 C 18.90625 25.234375 18.511719 24.289062 18.511719 23.28125 C 18.511719 22.269531 18.90625 21.324219 19.617188 20.609375 C 20.355469 19.871094 21.324219 19.503906 22.289062 19.503906 C 23.257812 19.503906 24.226562 19.871094 24.960938 20.609375 C 25.675781 21.320312 26.066406 22.269531 26.066406 23.28125 C 26.066406 24.289062 25.675781 25.234375 24.960938 25.949219 Z M 24.960938 25.949219 "/>
<path style=" stroke:none;fill-rule:nonzero;fill:rgb(0%,0%,0%);fill-opacity:1;" d="M 15.394531 44.59375 C 16.476562 45.671875 17.890625 46.210938 19.308594 46.210938 C 20.726562 46.210938 22.144531 45.671875 23.222656 44.59375 C 23.566406 44.25 23.566406 43.691406 23.222656 43.351562 C 22.882812 43.007812 22.324219 43.007812 21.980469 43.351562 C 20.507812 44.820312 18.113281 44.820312 16.640625 43.351562 C 15.925781 42.636719 15.53125 41.6875 15.53125 40.679688 C 15.53125 39.671875 15.925781 38.722656 16.640625 38.007812 C 18.113281 36.535156 20.507812 36.535156 21.980469 38.007812 C 22.582031 38.609375 22.957031 39.371094 23.058594 40.214844 C 23.117188 40.695312 23.558594 41.039062 24.039062 40.980469 C 24.519531 40.917969 24.863281 40.480469 24.804688 40 C 24.652344 38.765625 24.105469 37.648438 23.222656 36.765625 C 21.066406 34.609375 17.554688 34.609375 15.394531 36.765625 C 14.351562 37.8125 13.773438 39.199219 13.773438 40.679688 C 13.773438 42.15625 14.351562 43.546875 15.394531 44.59375 Z M 15.394531 44.59375 "/>
<path style=" stroke:none;fill-rule:nonzero;fill:rgb(0%,0%,0%);fill-opacity:1;" d="M 7.863281 52.894531 C 7.914062 52.902344 8.238281 52.945312 8.707031 52.945312 C 8.90625 52.945312 9.128906 52.9375 9.371094 52.917969 C 10.527344 52.808594 11.476562 52.414062 12.117188 51.769531 C 12.757812 51.128906 13.15625 50.179688 13.261719 49.023438 C 13.339844 48.21875 13.253906 47.585938 13.242188 47.519531 C 13.1875 47.132812 12.882812 46.832031 12.5 46.773438 C 12.429688 46.765625 11.796875 46.679688 10.992188 46.753906 C 9.835938 46.863281 8.886719 47.257812 8.246094 47.898438 C 7.605469 48.539062 7.207031 49.488281 7.101562 50.644531 C 7.023438 51.449219 7.109375 52.082031 7.121094 52.152344 C 7.175781 52.535156 7.480469 52.839844 7.863281 52.894531 Z M 9.488281 49.144531 C 9.992188 48.636719 10.871094 48.496094 11.535156 48.480469 C 11.519531 49.148438 11.378906 50.023438 10.875 50.527344 C 10.371094 51.03125 9.492188 51.171875 8.828125 51.1875 C 8.84375 50.523438 8.984375 49.648438 9.488281 49.144531 Z M 9.488281 49.144531 "/>
<path style=" stroke:none;fill-rule:nonzero;fill:rgb(0%,0%,0%);fill-opacity:1;" d="M 29.476562 31.535156 C 29.085938 31.5 28.722656 31.726562 28.582031 32.089844 C 28.554688 32.15625 28.328125 32.75 28.21875 33.550781 C 28.058594 34.699219 28.230469 35.714844 28.707031 36.484375 C 29.183594 37.257812 30.019531 37.859375 31.117188 38.226562 C 31.886719 38.484375 32.523438 38.542969 32.589844 38.550781 C 32.617188 38.554688 32.640625 38.554688 32.667969 38.554688 C 33.027344 38.554688 33.351562 38.335938 33.484375 37.996094 C 33.511719 37.929688 33.738281 37.335938 33.847656 36.535156 C 34.007812 35.386719 33.835938 34.371094 33.359375 33.601562 C 32.882812 32.828125 32.046875 32.226562 30.949219 31.859375 C 30.179688 31.601562 29.542969 31.542969 29.476562 31.535156 Z M 31.867188 34.527344 C 32.242188 35.132812 32.179688 36.019531 32.042969 36.671875 C 31.398438 36.503906 30.574219 36.164062 30.199219 35.558594 C 29.824219 34.953125 29.886719 34.066406 30.023438 33.417969 C 30.667969 33.582031 31.492188 33.921875 31.867188 34.527344 Z M 31.867188 34.527344 "/>
<path style=" stroke:none;fill-rule:nonzero;fill:rgb(0%,0%,0%);fill-opacity:1;" d="M 14.917969 29.4375 C 14.507812 29.699219 14.390625 30.242188 14.652344 30.648438 L 15.992188 32.742188 C 16.160156 33.003906 16.445312 33.144531 16.734375 33.144531 C 16.898438 33.144531 17.0625 33.101562 17.207031 33.003906 C 17.617188 32.742188 17.734375 32.199219 17.472656 31.792969 L 16.132812 29.699219 C 15.871094 29.292969 15.328125 29.171875 14.917969 29.4375 Z M 14.917969 29.4375 "/>
<path style=" stroke:none;fill-rule:nonzero;fill:rgb(0%,0%,0%);fill-opacity:1;" d="M 33.195312 29.183594 L 35.082031 30.800781 C 35.25 30.941406 35.453125 31.011719 35.65625 31.011719 C 35.902344 31.011719 36.148438 30.90625 36.324219 30.703125 C 36.636719 30.335938 36.59375 29.78125 36.226562 29.464844 L 34.339844 27.851562 C 33.972656 27.535156 33.417969 27.578125 33.101562 27.945312 C 32.785156 28.3125 32.828125 28.867188 33.195312 29.183594 Z M 33.195312 29.183594 "/>
<path style=" stroke:none;fill-rule:nonzero;fill:rgb(0%,0%,0%);fill-opacity:1;" d="M 26.917969 43.859375 L 26.679688 46.125 C 26.628906 46.609375 26.980469 47.042969 27.464844 47.089844 C 27.492188 47.09375 27.523438 47.097656 27.554688 47.097656 C 28 47.097656 28.382812 46.761719 28.429688 46.308594 L 28.664062 44.042969 C 28.714844 43.558594 28.363281 43.128906 27.882812 43.078125 C 27.398438 43.027344 26.96875 43.378906 26.917969 43.859375 Z M 26.917969 43.859375 "/>
</g>
</svg>
