<?xml version="1.0" encoding="UTF-8"?>
<svg xmlns="http://www.w3.org/2000/svg" xmlns:xlink="http://www.w3.org/1999/xlink" width="60px" height="60px" viewBox="0 0 60 60" version="1.1">
<g id="surface1">
<path style=" stroke:none;fill-rule:nonzero;fill:rgb(99.215686%,49.411765%,25.882353%);fill-opacity:1;" d="M 34.148438 19.980469 L 44.988281 19.980469 C 52.804688 19.980469 59.140625 26.316406 59.140625 34.128906 C 59.140625 40.945312 54.277344 46.796875 47.578125 48.042969 L 42.0625 49.070312 L 39.726562 43.003906 L 46.277344 39.003906 C 47.257812 38.402344 47.859375 37.332031 47.859375 36.183594 C 47.859375 34.355469 46.378906 32.878906 44.554688 32.878906 L 34.015625 32.878906 Z M 34.148438 19.980469 "/>
<path style=" stroke:none;fill-rule:nonzero;fill:rgb(98.823529%,32.54902%,15.294118%);fill-opacity:1;" d="M 51.621094 21.628906 C 54.554688 24.21875 56.40625 28.011719 56.40625 32.234375 C 56.40625 39.050781 51.546875 44.898438 44.84375 46.148438 L 41.199219 46.824219 L 42.0625 49.070312 L 47.578125 48.042969 C 54.277344 46.796875 59.140625 40.945312 59.140625 34.128906 C 59.140625 28.710938 56.09375 24.003906 51.621094 21.628906 Z M 51.621094 21.628906 "/>
<path style=" stroke:none;fill-rule:nonzero;fill:rgb(98.823529%,32.54902%,15.294118%);fill-opacity:1;" d="M 46.269531 26.488281 C 47.519531 26.917969 49.46875 24.59375 50.769531 21.210938 C 49.253906 20.53125 47.597656 20.113281 45.855469 20.007812 C 44.933594 23.28125 45.078125 26.074219 46.269531 26.488281 Z M 46.269531 26.488281 "/>
<path style=" stroke:none;fill-rule:nonzero;fill:rgb(98.823529%,32.54902%,15.294118%);fill-opacity:1;" d="M 56.402344 25.761719 C 53.390625 27.835938 51.574219 30.300781 52.292969 31.414062 C 52.96875 32.46875 55.679688 31.960938 58.621094 30.320312 C 58.15625 28.65625 57.394531 27.117188 56.402344 25.761719 Z M 56.402344 25.761719 "/>
<path style=" stroke:none;fill-rule:nonzero;fill:rgb(98.823529%,32.54902%,15.294118%);fill-opacity:1;" d="M 58.542969 38.195312 C 55.425781 37.289062 52.796875 37.394531 52.371094 38.535156 C 51.964844 39.617188 53.648438 41.285156 56.308594 42.617188 C 57.300781 41.296875 58.058594 39.804688 58.542969 38.195312 Z M 58.542969 38.195312 "/>
<path style=" stroke:none;fill-rule:nonzero;fill:rgb(92.941176%,26.27451%,13.333333%);fill-opacity:1;" d="M 56.378906 31.371094 C 57.089844 31.105469 57.847656 30.753906 58.621094 30.320312 C 58.15625 28.65625 57.394531 27.117188 56.402344 25.761719 C 55.992188 26.042969 55.609375 26.332031 55.25 26.621094 C 55.886719 28.09375 56.277344 29.691406 56.378906 31.371094 Z M 56.378906 31.371094 "/>
<path style=" stroke:none;fill-rule:nonzero;fill:rgb(92.941176%,26.27451%,13.333333%);fill-opacity:1;" d="M 55.347656 37.605469 C 54.878906 38.75 54.261719 39.824219 53.523438 40.796875 C 54.214844 41.417969 55.171875 42.046875 56.308594 42.617188 C 57.300781 41.296875 58.058594 39.804688 58.542969 38.195312 C 57.378906 37.859375 56.285156 37.660156 55.347656 37.605469 Z M 55.347656 37.605469 "/>
<path style=" stroke:none;fill-rule:nonzero;fill:rgb(99.215686%,49.411765%,25.882353%);fill-opacity:1;" d="M 38.097656 41.308594 L 25.992188 43.800781 C 25.261719 43.953125 24.835938 44.71875 25.09375 45.417969 C 25.277344 45.910156 25.753906 46.234375 26.277344 46.214844 L 32.195312 46.03125 C 32.460938 46.023438 32.5625 46.371094 32.335938 46.507812 L 26.882812 49.726562 C 25.773438 50.378906 26.402344 52.082031 27.671875 51.863281 L 33.90625 50.769531 C 34.167969 50.722656 34.316406 51.054688 34.109375 51.21875 L 29.488281 54.921875 C 29.078125 55.25 28.925781 55.804688 29.109375 56.296875 C 29.367188 56.996094 30.1875 57.304688 30.839844 56.945312 L 41.664062 50.980469 C 43.488281 49.976562 44.304688 47.789062 43.582031 45.835938 L 42.898438 43.976562 C 42.175781 42.023438 40.136719 40.886719 38.097656 41.308594 Z M 38.097656 41.308594 "/>
<path style=" stroke:none;fill-rule:nonzero;fill:rgb(98.823529%,32.54902%,15.294118%);fill-opacity:1;" d="M 43.582031 45.835938 L 42.898438 43.976562 C 42.300781 42.351562 40.789062 41.296875 39.125 41.226562 L 39.214844 41.464844 C 39.9375 43.421875 39.121094 45.605469 37.296875 46.613281 L 27.8125 51.835938 L 33.90625 50.769531 C 34.167969 50.722656 34.316406 51.054688 34.109375 51.21875 L 29.488281 54.921875 C 29.078125 55.25 28.925781 55.804688 29.109375 56.296875 C 29.367188 56.996094 30.1875 57.304688 30.839844 56.945312 L 41.664062 50.980469 C 43.488281 49.976562 44.304688 47.789062 43.582031 45.835938 Z M 43.582031 45.835938 "/>
<path style=" stroke:none;fill-rule:nonzero;fill:rgb(99.215686%,49.411765%,25.882353%);fill-opacity:1;" d="M 38.007812 26.550781 C 38.007812 31.832031 37.46875 36.109375 32.1875 36.109375 C 26.910156 36.109375 8.148438 31.832031 8.148438 26.550781 C 8.148438 21.273438 26.910156 16.992188 32.1875 16.992188 C 37.46875 16.992188 38.007812 21.273438 38.007812 26.550781 Z M 38.007812 26.550781 "/>
<path style=" stroke:none;fill-rule:nonzero;fill:rgb(98.823529%,32.54902%,15.294118%);fill-opacity:1;" d="M 32.25 16.992188 C 32.71875 18.59375 32.8125 20.589844 32.8125 22.75 C 32.8125 28.027344 32.269531 32.308594 26.988281 32.308594 C 23.5625 32.308594 14.460938 30.503906 8.492188 27.796875 C 11.066406 32.488281 27.332031 36.109375 32.1875 36.109375 C 37.46875 36.109375 38.007812 31.832031 38.007812 26.550781 C 38.007812 21.292969 37.46875 17.027344 32.25 16.992188 Z M 32.25 16.992188 "/>
<path style=" stroke:none;fill-rule:nonzero;fill:rgb(33.333333%,30.588235%,34.117647%);fill-opacity:1;" d="M 20.707031 25.636719 C 20.707031 26.921875 19.664062 27.964844 18.378906 27.964844 C 17.09375 27.964844 16.054688 26.921875 16.054688 25.636719 C 16.054688 24.351562 17.09375 23.3125 18.378906 23.3125 C 19.664062 23.3125 20.707031 24.351562 20.707031 25.636719 Z M 20.707031 25.636719 "/>
<path style=" stroke:none;fill-rule:nonzero;fill:rgb(27.058824%,24.313725%,26.27451%);fill-opacity:1;" d="M 19.042969 23.40625 C 19.105469 23.617188 19.136719 23.839844 19.136719 24.070312 C 19.136719 25.355469 18.097656 26.394531 16.8125 26.394531 C 16.582031 26.394531 16.359375 26.363281 16.148438 26.300781 C 16.433594 27.261719 17.324219 27.964844 18.378906 27.964844 C 19.664062 27.964844 20.707031 26.921875 20.707031 25.636719 C 20.707031 24.582031 20.003906 23.691406 19.042969 23.40625 Z M 19.042969 23.40625 "/>
<path style=" stroke:none;fill-rule:nonzero;fill:rgb(0%,0%,0%);fill-opacity:1;" d="M 57.019531 43.132812 C 59.757812 39.476562 60.695312 34.515625 59.472656 30.109375 C 59.46875 30.101562 59.46875 30.09375 59.46875 30.085938 C 58.980469 28.339844 58.1875 26.710938 57.109375 25.242188 C 57.089844 25.214844 57.066406 25.191406 57.042969 25.164062 C 54.214844 21.367188 49.71875 19.101562 44.988281 19.101562 L 37.714844 19.101562 C 36.667969 17.121094 34.8125 16.113281 32.1875 16.113281 C 30.71875 16.113281 28.335938 16.421875 25.652344 16.957031 C 25.175781 17.050781 24.867188 17.515625 24.960938 17.992188 C 25.054688 18.464844 25.519531 18.773438 25.996094 18.679688 C 28.535156 18.175781 30.851562 17.871094 32.1875 17.871094 C 36.367188 17.871094 37.128906 20.792969 37.128906 26.550781 C 37.128906 32.308594 36.367188 35.230469 32.1875 35.230469 C 29.6875 35.230469 23.726562 34.175781 18.457031 32.472656 C 12.550781 30.566406 9.027344 28.351562 9.027344 26.550781 C 9.027344 25.464844 10.382812 24.164062 12.84375 22.886719 C 15.714844 21.398438 19.363281 20.289062 21.921875 19.621094 C 22.390625 19.496094 22.671875 19.015625 22.550781 18.546875 C 22.425781 18.078125 21.945312 17.796875 21.476562 17.917969 C 18.832031 18.613281 15.050781 19.765625 12.035156 21.328125 C 8.871094 22.96875 7.269531 24.726562 7.269531 26.550781 C 7.269531 27.175781 7.457031 27.792969 7.824219 28.398438 C 5.246094 27.230469 3.683594 25.640625 3.40625 23.8125 C 3.046875 21.484375 4.867188 18.8125 8.390625 16.480469 C 12.167969 13.984375 17.433594 12.117188 23.21875 11.230469 C 32.117188 9.867188 40.550781 11.152344 44.199219 14.433594 C 44.5625 14.757812 45.117188 14.730469 45.441406 14.367188 C 45.765625 14.007812 45.738281 13.453125 45.375 13.128906 C 41.292969 9.457031 32.492188 8.03125 22.949219 9.496094 C 18.066406 10.242188 13.519531 11.671875 9.851562 13.585938 C 11.695312 12.03125 13.792969 10.535156 16.085938 9.1875 C 23.851562 4.621094 32.160156 2.695312 36.765625 4.394531 C 37.21875 4.5625 37.726562 4.328125 37.894531 3.875 C 38.0625 3.417969 37.828125 2.914062 37.375 2.746094 C 32.222656 0.847656 23.515625 2.78125 15.195312 7.671875 C 9.9375 10.761719 5.539062 14.625 2.8125 18.546875 C -0.0507812 22.664062 -0.753906 26.410156 0.824219 29.097656 C 2.171875 31.390625 5.03125 32.601562 8.914062 32.601562 C 10.15625 32.601562 11.5 32.476562 12.933594 32.226562 C 14.335938 32.886719 15.996094 33.527344 17.917969 34.148438 C 23.421875 35.925781 29.496094 36.988281 32.1875 36.988281 C 33.832031 36.988281 35.171875 36.59375 36.203125 35.8125 C 36.242188 37.039062 36.550781 37.804688 36.570312 37.855469 C 36.765625 38.335938 37.273438 38.503906 37.71875 38.332031 C 38.167969 38.144531 38.382812 37.632812 38.195312 37.183594 C 38.191406 37.167969 37.65625 35.777344 38.199219 33.757812 L 40.144531 33.757812 C 39.390625 35.910156 39.757812 37.515625 39.785156 37.589844 C 39.976562 38.171875 40.402344 38.339844 40.847656 38.238281 C 41.320312 38.121094 41.609375 37.648438 41.492188 37.175781 C 41.488281 37.160156 41.171875 35.6875 42.035156 33.757812 L 43.96875 33.757812 C 41.804688 35.699219 41.457031 37.808594 41.441406 37.914062 C 41.371094 38.394531 41.699219 38.847656 42.179688 38.917969 C 42.613281 38.984375 43.042969 38.699219 43.179688 38.183594 C 43.203125 38.09375 43.574219 35.996094 46.109375 34.320312 C 46.640625 34.765625 46.980469 35.4375 46.980469 36.183594 C 46.980469 37.019531 46.535156 37.816406 45.816406 38.253906 L 41.390625 40.957031 C 40.367188 40.398438 39.148438 40.195312 37.917969 40.445312 L 25.816406 42.941406 C 25.214844 43.066406 24.703125 43.441406 24.40625 43.976562 C 24.109375 44.511719 24.058594 45.148438 24.269531 45.722656 C 24.582031 46.570312 25.402344 47.125 26.304688 47.09375 L 29.792969 46.984375 L 26.4375 48.96875 C 25.574219 49.476562 25.214844 50.488281 25.5625 51.425781 C 25.910156 52.363281 26.839844 52.902344 27.824219 52.726562 L 31.664062 52.054688 L 28.941406 54.238281 C 28.234375 54.804688 27.96875 55.753906 28.28125 56.601562 C 28.496094 57.175781 28.945312 57.628906 29.519531 57.84375 C 30.109375 58.054688 30.691406 58.011719 31.265625 57.714844 L 36.53125 54.8125 C 36.957031 54.578125 37.109375 54.042969 36.875 53.617188 C 36.640625 53.195312 36.109375 53.039062 35.683594 53.273438 L 30.417969 56.175781 C 30.105469 56.34375 29.691406 55.886719 30.039062 55.609375 L 34.660156 51.90625 C 35.066406 51.582031 35.199219 51.027344 34.984375 50.554688 C 34.769531 50.082031 34.265625 49.8125 33.753906 49.902344 L 27.519531 50.996094 C 27.171875 50.929688 27.109375 50.757812 27.332031 50.480469 L 32.78125 47.265625 C 33.226562 47 33.4375 46.46875 33.296875 45.972656 C 33.152344 45.472656 32.6875 45.140625 32.171875 45.152344 L 26.25 45.339844 C 25.804688 45.355469 25.828125 44.734375 26.171875 44.664062 L 38.273438 42.167969 C 39.902344 41.835938 41.5 42.722656 42.074219 44.28125 L 42.757812 46.140625 C 43.335938 47.699219 42.695312 49.410156 41.242188 50.210938 L 39.394531 51.230469 C 38.96875 51.464844 38.8125 51.996094 39.046875 52.421875 C 39.28125 52.847656 39.816406 53.003906 40.242188 52.769531 L 42.089844 51.75 C 43.03125 51.230469 43.75 50.460938 44.195312 49.566406 L 47.738281 48.90625 C 51.558594 48.195312 54.8125 46.074219 57.011719 43.144531 C 57.015625 43.140625 57.019531 43.136719 57.019531 43.132812 Z M 2.339844 28.207031 C 1.785156 27.265625 1.640625 26.125 1.847656 24.859375 C 2.628906 27.453125 5.269531 29.558594 9.316406 30.835938 C 5.902344 30.90625 3.386719 29.992188 2.339844 28.207031 Z M 46.519531 20.945312 C 47.011719 21.003906 47.503906 21.089844 47.984375 21.199219 C 48.546875 21.328125 49.09375 21.496094 49.625 21.695312 C 48.359375 24.59375 46.996094 25.664062 46.609375 25.664062 C 46.589844 25.664062 46.574219 25.660156 46.558594 25.65625 C 46.277344 25.558594 45.796875 23.972656 46.519531 20.945312 Z M 47.417969 47.179688 L 44.714844 47.679688 C 44.765625 46.972656 44.671875 46.242188 44.410156 45.53125 L 43.722656 43.671875 C 43.511719 43.09375 43.207031 42.582031 42.832031 42.136719 L 46.734375 39.753906 C 47.96875 38.996094 48.738281 37.628906 48.738281 36.183594 C 48.738281 33.875 46.859375 31.996094 44.554688 31.996094 L 38.4375 31.996094 C 38.796875 30.472656 38.886719 28.671875 38.886719 26.550781 C 38.886719 24.316406 38.789062 22.433594 38.378906 20.859375 L 44.738281 20.859375 C 44.128906 23.648438 44.144531 26.683594 45.984375 27.316406 C 46.183594 27.386719 46.386719 27.421875 46.589844 27.421875 C 48.289062 27.421875 50.035156 25.117188 51.222656 22.417969 C 52.722656 23.21875 54.054688 24.300781 55.140625 25.59375 C 54.769531 25.875 54.414062 26.164062 54.078125 26.457031 C 53.714844 26.777344 53.679688 27.335938 54.003906 27.699219 C 54.324219 28.0625 54.878906 28.097656 55.242188 27.773438 C 55.539062 27.515625 55.851562 27.257812 56.183594 27.007812 C 56.753906 27.898438 57.21875 28.867188 57.566406 29.886719 C 54.828125 31.28125 53.191406 31.1875 53.03125 30.941406 C 53.019531 30.917969 52.996094 30.824219 53.046875 30.621094 C 53.164062 30.152344 52.878906 29.675781 52.40625 29.554688 C 51.933594 29.4375 51.457031 29.722656 51.339844 30.195312 C 51.136719 31.007812 51.34375 31.566406 51.550781 31.890625 C 51.988281 32.570312 52.753906 32.84375 53.6875 32.84375 C 54.964844 32.84375 56.554688 32.324219 58.023438 31.621094 C 58.175781 32.433594 58.261719 33.273438 58.261719 34.128906 C 58.261719 35.15625 58.140625 36.15625 57.917969 37.121094 C 55.136719 36.453125 52.21875 36.433594 51.546875 38.226562 C 50.9375 39.851562 52.769531 41.613281 54.960938 42.886719 C 53.050781 45.058594 50.433594 46.617188 47.417969 47.179688 Z M 56.039062 41.480469 C 55.113281 40.960938 54.339844 40.402344 53.816406 39.867188 C 52.714844 38.742188 53.5625 38.46875 54.820312 38.46875 C 55.566406 38.46875 56.457031 38.585938 57.40625 38.804688 C 57.054688 39.746094 56.597656 40.640625 56.039062 41.480469 Z M 56.039062 41.480469 "/>
<path style=" stroke:none;fill-rule:nonzero;fill:rgb(0%,0%,0%);fill-opacity:1;" d="M 15.175781 25.636719 C 15.175781 27.40625 16.613281 28.84375 18.378906 28.84375 C 20.148438 28.84375 21.585938 27.40625 21.585938 25.636719 C 21.585938 23.871094 20.148438 22.433594 18.378906 22.433594 C 16.613281 22.433594 15.175781 23.871094 15.175781 25.636719 Z M 19.828125 25.636719 C 19.828125 26.4375 19.179688 27.085938 18.378906 27.085938 C 17.582031 27.085938 16.933594 26.4375 16.933594 25.636719 C 16.933594 24.839844 17.582031 24.191406 18.378906 24.191406 C 19.179688 24.191406 19.828125 24.839844 19.828125 25.636719 Z M 19.828125 25.636719 "/>
</g>
</svg>
